<svg width="847" height="585" viewBox="0 0 847 585" fill="none" xmlns="http://www.w3.org/2000/svg">
<path d="M804.585 45.8196C805.781 41.8264 802.541 36.8981 797.256 35.1339C793.231 33.7903 786.524 34.8306 785.595 38.9097C785.087 41.1398 787.68 47.6866 792.924 49.5948C798.167 51.5029 803.388 49.8127 804.585 45.8196Z" fill="white" fill-opacity="0.1"/>
<path d="M801.882 58.8936C798.935 58.6527 793.668 61.6207 793.694 65.0502C793.712 67.4132 797.312 71.2834 801.816 71.313C806.32 71.342 809.986 68.5859 810.004 65.1564C810.022 61.7269 806.374 59.2615 801.882 58.8936Z" fill="white" fill-opacity="0.1"/>
<path d="M841.443 34.9271C836.92 32.0597 834.112 33.7751 831.32 35.2123C828.709 36.5565 825.764 36.7837 822.984 35.9455C818.062 34.4617 813.024 36.7016 810.289 41.2673C807.554 45.833 807.666 51.8179 810.84 56.2221C812.631 58.7095 813.6 61.7827 813.504 64.9566C813.403 68.3507 813.076 71.8707 817.246 75.326C822.394 79.5906 829.854 77.6032 833.402 71.6801C834.401 70.0113 835.001 68.1804 835.227 66.3232C835.472 64.3128 836.112 62.4107 837.089 60.7588C838.083 59.119 839.418 57.7229 841 56.6848C842.461 55.7255 843.753 54.3978 844.752 52.729C848.3 46.8071 847.025 38.4662 841.443 34.9271Z" fill="white" fill-opacity="0.1"/>
<path d="M811.876 33.5817C814.726 30.7861 814.062 24.835 810.39 20.2883C806.72 15.7421 800.237 15.7191 798.581 17.1186C795.553 19.6778 797.35 26.8734 800.067 30.4116C803.634 35.0573 809.024 36.3774 811.876 33.5817Z" fill="white" fill-opacity="0.1"/>
<path d="M830.138 31.3897C832.987 30.0093 833.828 25.2075 832.016 20.6635C830.203 16.1201 825.551 14.016 823.575 14.9358C820.708 16.2707 820.327 22.777 821.698 25.6614C823.787 30.0591 827.289 32.77 830.138 31.3897Z" fill="white" fill-opacity="0.1"/>
<path d="M745.194 36.0819C749.054 36.895 753.187 32.5914 754.115 26.4087C754.822 21.6994 752.963 14.2924 749.059 13.792C746.925 13.5182 741.205 17.3098 740.137 23.4652C739.07 29.62 741.333 35.2688 745.194 36.0819Z" fill="white" fill-opacity="0.1"/>
<path d="M727.997 44.7679C731.177 44.3304 732.975 39.8959 732.715 34.7929C732.544 31.4454 729.091 25.9142 725.916 26.4021C723.73 26.7382 720.623 31.3057 721.198 36.377C721.772 41.4487 724.816 45.2053 727.997 44.7679Z" fill="white" fill-opacity="0.1"/>
<path d="M756.798 55.4702C757.516 49.7328 754.767 44.3644 750.171 41.8973C745.575 39.4308 740.045 40.3555 736.387 44.5144C734.322 46.8633 731.605 48.3629 728.65 48.6799C725.492 49.0189 722.186 49.1212 719.542 54.275C716.278 60.6366 719.116 68.765 725.078 71.9652C726.758 72.867 728.534 73.2973 730.286 73.3039C732.182 73.3104 734.03 73.7764 735.69 74.6557C737.343 75.5552 738.815 76.8709 739.989 78.5118C741.072 80.0268 742.475 81.3036 744.155 82.2048C750.117 85.405 757.675 82.8569 760.209 76.1038C762.261 70.632 760.297 67.7012 758.591 64.7517C756.996 61.9933 756.393 58.7104 756.798 55.4702Z" fill="white" fill-opacity="0.1"/>
<path d="M769.628 39.21C773.35 34.4722 772.506 27.1753 770.988 25.4993C768.213 22.4342 761.785 25.416 758.869 28.9465C755.041 33.5813 754.538 39.8232 757.509 42.6572C760.48 45.4912 765.907 43.9478 769.628 39.21Z" fill="white" fill-opacity="0.1"/>
<path d="M766.156 52.6456C762.361 55.5836 760.317 59.8867 761.976 62.9085C763.636 65.9297 768.198 66.2342 772.166 63.5874C776.134 60.9412 777.461 55.4248 776.345 53.325C774.725 50.2775 768.645 50.7183 766.156 52.6456Z" fill="white" fill-opacity="0.1"/>
<path d="M670.071 16.5744C672.016 15.1126 672.106 11.3601 670.116 8.31274C668.601 5.99136 664.962 3.73075 663.119 5.34477C662.111 6.22733 661.154 10.5055 663.073 13.6065C664.993 16.7075 668.126 18.0363 670.071 16.5744Z" fill="white" fill-opacity="0.1"/>
<path d="M664.309 21.8655C662.947 20.5302 659.357 19.8081 658.202 21.4993C657.407 22.6643 657.854 26.0473 660.05 27.9225C662.247 29.7976 664.981 29.9613 666.157 28.2887C667.333 26.6167 666.385 23.9011 664.309 21.8655Z" fill="white" fill-opacity="0.1"/>
<path d="M686.789 22.4254C685.052 22.0054 683.533 20.9 682.456 19.3412C680.548 16.5805 677.319 15.5966 674.425 16.7037C671.533 17.8108 669.552 20.7888 669.608 24.258C669.639 26.217 669.068 28.1224 667.941 29.6385C666.737 31.2592 665.378 32.8487 666.247 36.2648C667.318 40.4807 671.649 42.5887 675.402 41.1526C676.46 40.7479 677.376 40.0985 678.119 39.2822C678.923 38.3985 679.883 37.731 680.924 37.3253C681.969 36.9327 683.099 36.8002 684.227 36.9448C685.268 37.0784 686.353 36.9618 687.41 36.5571C691.163 35.121 693.377 30.5086 691.846 26.4683C690.606 23.1946 688.646 22.8744 686.789 22.4254Z" fill="white" fill-opacity="0.1"/>
<path d="M677.817 13.5929C680.165 13.4013 681.864 10.211 681.613 6.46726C681.36 2.72349 678.193 0.0347352 676.905 0.0363777C674.551 0.0391152 672.983 4.3063 673.11 7.16204C673.278 10.9113 675.47 13.7845 677.817 13.5929Z" fill="white" fill-opacity="0.1"/>
<path d="M687.509 20.0625C689.374 20.5635 691.419 18.558 692.077 15.5835C692.735 12.6089 691.171 9.65631 689.891 9.29059C688.032 8.76007 685.632 11.7904 685.322 13.7696C684.85 16.7869 685.643 19.5621 687.509 20.0625Z" fill="white" fill-opacity="0.1"/>
<path d="M587.452 47.1277C589.552 45.3867 589.476 41.1973 587.116 37.9112C585.317 35.4086 581.153 33.0944 579.173 34.9991C578.09 36.041 577.224 40.866 579.509 44.2156C581.795 47.5646 585.351 48.8688 587.452 47.1277Z" fill="white" fill-opacity="0.1"/>
<path d="M576.796 60.3529C579.333 62.319 582.39 62.3463 583.623 60.4148C584.856 58.4827 583.671 55.5087 581.262 53.3565C579.681 51.9445 575.642 51.3433 574.435 53.2946C573.602 54.6392 574.258 58.3869 576.796 60.3529Z" fill="white" fill-opacity="0.1"/>
<path d="M585.678 61.818C584.411 63.6944 582.971 65.5434 584.098 69.3039C585.491 73.9447 590.419 76.0494 594.538 74.2344C595.698 73.723 596.691 72.9471 597.48 71.9944C598.335 70.9629 599.375 70.164 600.516 69.6526C601.664 69.1549 602.916 68.9436 604.181 69.0405C605.349 69.1303 606.554 68.9381 607.715 68.4273C611.833 66.6122 614.085 61.3422 612.189 56.9242C610.652 53.3444 608.452 53.0991 606.36 52.7033C604.403 52.3331 602.657 51.1872 601.382 49.5095C599.127 46.5392 595.478 45.6259 592.304 47.0249C589.13 48.4238 587.06 51.8579 587.284 55.7229C587.412 57.9059 586.864 60.0632 585.678 61.818Z" fill="white" fill-opacity="0.1"/>
<path d="M595.94 43.3637C598.55 43.0166 600.295 39.3618 599.839 35.2006C599.383 31.0399 595.724 28.2206 594.288 28.2957C591.663 28.4325 590.115 33.2809 590.39 36.4588C590.752 40.6304 593.331 43.7108 595.94 43.3637Z" fill="white" fill-opacity="0.1"/>
<path d="M607.057 50.0274C609.161 50.4801 611.348 48.1275 611.943 44.7725C612.537 41.418 610.655 38.2135 609.21 37.879C607.112 37.3933 604.577 40.9088 604.323 43.1338C603.938 46.525 604.953 49.5746 607.057 50.0274Z" fill="white" fill-opacity="0.1"/>
<path d="M643.161 166.761C646.603 162.706 649.139 154.214 645.655 150.953C643.749 149.171 635.992 148.773 631.354 153.972C626.717 159.171 625.6 166.248 628.86 169.78C632.12 173.312 638.642 172.085 643.161 166.761Z" fill="white" fill-opacity="0.1"/>
<path d="M605.471 153.004C603.057 158.322 603.804 164.123 607.139 165.961C610.473 167.799 614.81 164.784 617.547 159.661C619.343 156.299 619.238 148.489 615.879 146.704C613.566 145.475 607.886 147.687 605.471 153.004Z" fill="white" fill-opacity="0.1"/>
<path d="M630.271 178.951C627.267 173.295 621.371 170.258 615.397 171.682C612.021 172.487 608.512 172.006 605.467 170.212C602.212 168.294 598.952 166.043 593.374 169.151C586.49 172.987 584.478 182.874 588.374 190.211C589.472 192.279 590.94 193.958 592.631 195.209C594.462 196.564 595.977 198.329 597.07 200.361C598.144 202.407 598.797 204.727 598.972 207.15C599.134 209.387 599.744 211.62 600.842 213.687C604.739 221.024 613.547 223.933 619.954 219.197C625.146 215.36 624.96 211.127 625.037 207.059C625.11 203.255 626.447 199.649 628.736 196.801C632.791 191.758 633.274 184.607 630.271 178.951Z" fill="white" fill-opacity="0.1"/>
<path d="M646.275 172.597C639.855 174.361 635.714 180.045 636.929 184.901C638.145 189.757 644.301 192.122 650.678 190.182C657.055 188.243 660.511 180.58 660.023 177.878C659.131 172.937 651.164 171.253 646.275 172.597Z" fill="white" fill-opacity="0.1"/>
<path d="M639.452 200.721C634.057 200.867 629.559 203.578 629.396 207.682C629.233 211.787 633.47 215.325 638.86 215.586C644.251 215.846 648.767 211.451 648.916 208.624C649.133 204.523 642.99 200.626 639.452 200.721Z" fill="white" fill-opacity="0.1"/>
<path d="M503.651 165.903C507.946 166.339 512.047 161.154 512.465 154.292C512.783 149.065 510.038 141.191 505.725 141.101C503.367 141.052 497.484 145.864 496.911 152.713C496.339 159.561 499.356 165.467 503.651 165.903Z" fill="white" fill-opacity="0.1"/>
<path d="M485.707 177.405C489.139 176.554 490.675 171.5 489.9 165.956C489.391 162.319 485.085 156.681 481.664 157.586C479.307 158.209 476.355 163.562 477.471 169.035C478.588 174.508 482.275 178.255 485.707 177.405Z" fill="white" fill-opacity="0.1"/>
<path d="M506.965 216.41C513.786 219.208 521.797 215.54 523.914 207.866C525.629 201.648 523.2 198.676 521.053 195.654C519.044 192.827 518.069 189.311 518.199 185.725C518.43 179.373 514.909 173.83 509.651 171.673C504.393 169.517 498.439 171.174 494.846 176.145C492.816 178.953 489.992 180.91 486.795 181.602C483.377 182.342 479.777 182.84 477.385 188.78C474.432 196.112 478.317 204.659 485.138 207.457C487.06 208.246 489.043 208.508 490.956 208.31C493.028 208.095 495.09 208.387 496.99 209.153C498.882 209.942 500.617 211.208 502.057 212.863C503.387 214.391 505.043 215.622 506.965 216.41Z" fill="white" fill-opacity="0.1"/>
<path d="M517.733 171.644C521.252 174.392 527.031 172.071 530.639 166.46C534.249 160.848 532.623 152.976 530.803 151.323C527.475 148.299 520.74 152.309 517.897 156.507C514.162 162.018 514.214 168.896 517.733 171.644Z" fill="white" fill-opacity="0.1"/>
<path d="M524.57 193.244C526.673 196.35 531.686 196.149 535.765 192.793C539.845 189.438 540.763 183.256 539.341 181.093C537.278 177.953 530.68 179.146 528.145 181.543C524.283 185.198 522.465 190.137 524.57 193.244Z" fill="white" fill-opacity="0.1"/>
<path d="M564.8 302.589C568.873 306.17 576.136 303.933 580.691 297.31C584.16 292.265 586.129 282.308 581.829 279.064C579.478 277.29 570.64 277.846 565.938 284.342C561.236 290.839 560.726 299.008 564.8 302.589Z" fill="white" fill-opacity="0.1"/>
<path d="M536.48 286.606C534.311 292.948 535.778 299.429 539.756 301.08C543.733 302.731 548.327 298.751 550.883 292.586C552.56 288.541 551.605 279.7 547.608 278.113C544.853 277.018 538.649 280.264 536.48 286.606Z" fill="white" fill-opacity="0.1"/>
<path d="M567.38 312.803C563.37 306.78 556.361 304.102 549.739 306.493C545.998 307.844 541.968 307.754 538.324 306.115C534.428 304.363 530.492 302.234 524.5 306.482C517.104 311.725 515.88 323.196 521.082 331.009C522.548 333.21 524.391 334.925 526.442 336.124C528.663 337.422 530.571 339.226 532.027 341.389C533.462 343.569 534.452 346.115 534.91 348.839C535.332 351.355 536.263 353.807 537.729 356.009C542.931 363.822 553.228 365.976 559.987 359.775C565.462 354.751 564.799 349.975 564.452 345.353C564.128 341.031 565.259 336.768 567.55 333.242C571.607 326.996 571.39 318.826 567.38 312.803Z" fill="white" fill-opacity="0.1"/>
<path d="M584.841 303.522C577.752 306.356 573.664 313.338 575.562 318.685C577.46 324.034 584.691 325.916 591.715 322.889C598.737 319.862 601.836 310.725 600.994 307.725C599.454 302.239 590.241 301.364 584.841 303.522Z" fill="white" fill-opacity="0.1"/>
<path d="M580.115 336.295C574.015 337.16 569.205 340.818 569.459 345.493C569.713 350.168 574.895 353.629 581.035 353.224C587.175 352.819 591.824 347.25 591.692 344.026C591.498 339.348 584.117 335.727 580.115 336.295Z" fill="white" fill-opacity="0.1"/>
<path d="M507.891 391.756C506.594 392.498 504.684 397.033 506.211 400.948C507.738 404.861 510.965 407.092 513.419 405.93C515.874 404.767 516.714 400.609 515.099 396.738C513.869 393.789 510.262 390.399 507.891 391.756Z" fill="white" fill-opacity="0.1"/>
<path d="M505.948 410.439C504.695 408.625 500.838 406.961 499.219 408.568C498.104 409.675 497.934 413.55 500.011 416.165C502.087 418.779 505.1 419.617 506.739 418.036C508.378 416.455 507.858 413.203 505.948 410.439Z" fill="white" fill-opacity="0.1"/>
<path d="M530.869 416.448C529.017 415.563 527.543 413.968 526.651 411.974C525.072 408.442 521.668 406.572 518.227 407.113C514.787 407.653 511.992 410.495 511.371 414.372C511.02 416.561 510.008 418.547 508.453 419.965C506.792 421.482 504.966 422.927 505.259 426.939C505.62 431.892 510.028 435.277 514.491 434.577C515.749 434.38 516.899 433.876 517.886 433.145C518.957 432.353 520.158 431.839 521.397 431.637C522.638 431.45 523.922 431.573 525.15 432.005C526.284 432.403 527.516 432.532 528.773 432.335C533.237 431.634 536.611 427.027 535.703 422.161C534.968 418.219 532.849 417.393 530.869 416.448Z" fill="white" fill-opacity="0.1"/>
<path d="M522.617 404.462C525.269 404.811 527.791 401.664 528.25 397.434C528.708 393.204 525.71 389.45 524.276 389.143C521.653 388.582 519.065 392.959 518.643 396.171C518.09 400.388 519.964 404.113 522.617 404.462Z" fill="white" fill-opacity="0.1"/>
<path d="M536.923 402.561C534.958 401.525 531.686 404.325 530.951 406.455C529.83 409.703 530.166 412.983 532.144 413.988C534.123 414.993 536.798 413.249 538.117 410.094C539.436 406.938 538.278 403.276 536.923 402.561Z" fill="white" fill-opacity="0.1"/>
<path d="M398.188 450.73C398.806 446.136 394.437 441.449 388.384 440.629C383.774 440.005 376.656 442.533 376.343 447.164C376.173 449.696 380.115 456.28 386.147 457.264C392.18 458.249 397.571 455.324 398.188 450.73Z" fill="white" fill-opacity="0.1"/>
<path d="M397.487 465.516C394.239 465.867 389.017 470.192 389.633 473.918C390.058 476.485 394.637 479.947 399.543 479.042C404.449 478.137 407.964 474.375 407.397 470.64C406.829 466.905 402.437 464.982 397.487 465.516Z" fill="white" fill-opacity="0.1"/>
<path d="M436.432 431.208C431.019 429.029 428.257 431.48 425.466 433.624C422.855 435.63 419.69 436.49 416.522 436.157C410.911 435.567 405.814 439.052 403.621 444.589C401.428 450.125 402.575 456.613 406.783 460.745C409.159 463.079 410.739 466.221 411.179 469.694C411.65 473.408 411.897 477.306 417.027 480.198C423.358 483.767 431.135 480.051 433.98 472.869C434.782 470.846 435.121 468.728 435.048 466.661C434.97 464.422 435.34 462.22 436.121 460.219C436.922 458.228 438.135 456.432 439.678 454.973C441.104 453.625 442.281 451.912 443.083 449.888C445.927 442.706 443.111 433.896 436.432 431.208Z" fill="white" fill-opacity="0.1"/>
<path d="M390.637 434.904C395.314 439.216 401.406 439.53 404.029 435.896C406.652 432.261 404.908 425.924 400.135 421.742C395.361 417.56 388.305 418.883 386.743 420.75C383.887 424.165 387.074 431.62 390.637 434.904Z" fill="white" fill-opacity="0.1"/>
<path d="M423.521 429.712C426.384 427.617 426.475 422.217 423.725 417.651C420.974 413.085 415.552 411.764 413.56 413.176C410.669 415.225 411.369 422.383 413.355 425.236C416.382 429.586 420.657 431.807 423.521 429.712Z" fill="white" fill-opacity="0.1"/>
<path d="M316.089 466.448C319.066 466.325 321.456 462.372 321.189 457.631C320.985 454.02 318.469 448.896 315.508 449.257C313.888 449.454 310.248 453.327 310.408 458.074C310.569 462.821 313.112 466.57 316.089 466.448Z" fill="white" fill-opacity="0.1"/>
<path d="M304.729 476.082C307.012 475.163 307.656 471.551 306.677 467.83C306.035 465.389 302.631 461.95 300.361 462.905C298.797 463.563 297.206 467.518 298.413 471.156C299.62 474.795 302.447 477 304.729 476.082Z" fill="white" fill-opacity="0.1"/>
<path d="M330.415 485.118C328.811 483.378 327.859 481.066 327.659 478.597C327.304 474.224 324.445 470.773 320.67 469.811C316.895 468.849 312.951 470.567 310.891 474.325C309.727 476.447 307.951 478.064 305.817 478.851C303.536 479.693 301.111 480.387 299.952 484.69C298.521 490.001 301.871 495.474 306.769 496.722C308.15 497.074 309.529 497.059 310.823 496.736C312.224 496.386 313.661 496.384 315.025 496.723C316.384 497.078 317.675 497.775 318.794 498.767C319.829 499.683 321.062 500.363 322.442 500.715C327.339 501.963 332.53 498.665 333.361 493.202C334.032 488.775 332.129 486.978 330.415 485.118Z" fill="white" fill-opacity="0.1"/>
<path d="M326.202 468.999C328.834 470.536 332.604 468.38 334.623 464.183C336.641 459.986 334.893 454.754 333.513 453.8C330.989 452.055 326.701 455.462 325.092 458.615C322.978 462.756 323.57 467.461 326.202 468.999Z" fill="white" fill-opacity="0.1"/>
<path d="M334.136 474.758C331.786 477.639 330.94 481.2 332.632 483.121C334.324 485.042 337.74 484.413 340.264 481.715C342.786 479.018 342.917 474.694 341.768 473.352C340.102 471.404 335.679 472.868 334.136 474.758Z" fill="white" fill-opacity="0.1"/>
<path d="M242.529 556.755C245.001 556.202 246.505 552.537 245.691 548.615C245.071 545.629 242.329 541.728 239.9 542.478C238.571 542.888 236.012 546.675 236.738 550.618C237.463 554.56 240.057 557.308 242.529 556.755Z" fill="white" fill-opacity="0.1"/>
<path d="M234.24 566.527C236.032 565.414 236.12 562.297 234.838 559.336C233.998 557.393 230.724 555.035 228.946 556.176C227.72 556.963 226.886 560.509 228.347 563.367C229.81 566.226 232.448 567.64 234.24 566.527Z" fill="white" fill-opacity="0.1"/>
<path d="M256.829 570.189C255.272 568.978 254.188 567.19 253.713 565.157C252.871 561.557 250.052 559.105 246.777 558.873C243.502 558.641 240.422 560.674 239.168 564.126C238.461 566.075 237.178 567.696 235.492 568.676C233.691 569.725 231.751 570.672 231.319 574.444C230.786 579.098 234.268 583.165 238.517 583.467C239.713 583.552 240.864 583.33 241.905 582.864C243.033 582.36 244.233 582.141 245.414 582.217C246.595 582.308 247.76 582.695 248.819 583.354C249.798 583.964 250.914 584.345 252.111 584.43C256.359 584.731 260.286 581.19 260.298 576.499C260.308 572.697 258.493 571.484 256.829 570.189Z" fill="white" fill-opacity="0.1"/>
<path d="M251.299 557.356C253.691 558.243 256.573 555.87 257.737 552.057C258.9 548.244 256.787 544.136 255.515 543.548C253.188 542.472 250.029 545.968 249.077 548.847C247.829 552.627 248.909 556.47 251.299 557.356Z" fill="white" fill-opacity="0.1"/>
<path d="M258.652 560.969C257.047 563.732 256.784 566.836 258.438 568.186C260.09 569.536 262.868 568.492 264.64 565.855C266.412 563.219 265.982 559.586 264.855 558.638C263.218 557.263 259.705 559.156 258.652 560.969Z" fill="white" fill-opacity="0.1"/>
<path d="M191.922 458.07C194.977 454.578 197.295 447.199 194.29 444.3C192.648 442.715 185.878 442.255 181.765 446.727C177.651 451.2 176.59 457.365 179.395 460.498C182.2 463.629 187.91 462.654 191.922 458.07Z" fill="white" fill-opacity="0.1"/>
<path d="M160.456 456.843C163.346 458.497 167.17 455.928 169.622 451.493C171.232 448.583 171.234 441.76 168.323 440.152C166.317 439.044 161.329 440.893 159.156 445.502C156.983 450.111 157.565 455.189 160.456 456.843Z" fill="white" fill-opacity="0.1"/>
<path d="M180.52 468.527C177.965 463.543 172.854 460.804 167.617 461.96C164.659 462.614 161.601 462.142 158.963 460.531C156.143 458.808 153.324 456.794 148.414 459.427C142.355 462.677 140.478 471.283 143.793 477.748C144.727 479.57 145.989 481.058 147.45 482.176C149.033 483.386 150.335 484.95 151.265 486.74C152.178 488.543 152.721 490.579 152.845 492.697C152.959 494.654 153.465 496.613 154.4 498.435C157.715 504.9 165.372 507.57 171.025 503.527C175.605 500.252 175.494 496.552 175.61 493.001C175.719 489.68 176.931 486.549 178.965 484.095C182.567 479.749 183.076 473.511 180.52 468.527Z" fill="white" fill-opacity="0.1"/>
<path d="M194.572 463.212C188.944 464.659 185.259 469.563 186.262 473.822C187.266 478.08 192.614 480.237 198.206 478.636C203.8 477.035 206.91 470.393 206.517 468.026C205.798 463.698 198.858 462.11 194.572 463.212Z" fill="white" fill-opacity="0.1"/>
<path d="M188.271 487.675C183.558 487.723 179.597 490.025 179.405 493.608C179.213 497.19 182.871 500.342 187.577 500.648C192.281 500.954 196.278 497.182 196.443 494.716C196.681 491.137 191.363 487.643 188.271 487.675Z" fill="white" fill-opacity="0.1"/>
<path d="M104.931 467.815C107.24 469.582 111.075 468.091 113.312 464.347C115.015 461.495 115.751 456.059 113.331 454.483C112.008 453.621 107.269 454.269 104.95 457.951C102.631 461.632 102.622 466.049 104.931 467.815Z" fill="white" fill-opacity="0.1"/>
<path d="M91.3984 467.99C93.5931 468.722 95.9368 466.399 97.1119 462.98C97.883 460.738 97.0821 456.017 94.879 455.321C93.3605 454.841 90.1269 456.832 89.1665 460.331C88.205 463.829 89.2047 467.259 91.3984 467.99Z" fill="white" fill-opacity="0.1"/>
<path d="M96.9495 470.511C94.981 471.386 92.8092 471.496 90.7944 470.758C88.6405 469.969 86.4537 468.978 83.3662 471.501C79.5562 474.615 79.2701 480.837 82.3243 484.836C83.1849 485.963 84.2328 486.813 85.375 487.377C86.6127 487.988 87.6974 488.884 88.552 489.99C89.3947 491.107 90.0103 492.438 90.3452 493.886C90.6542 495.223 91.2346 496.506 92.0952 497.633C95.1494 501.633 100.761 502.386 104.196 498.782C106.98 495.862 106.468 493.318 106.131 490.844C105.816 488.531 106.286 486.191 107.405 484.203C109.386 480.682 109.004 476.293 106.649 473.21C104.295 470.128 100.437 468.963 96.9495 470.511Z" fill="white" fill-opacity="0.1"/>
<path d="M115.745 467.527C112.022 469.331 110.048 473.25 111.244 476.053C112.439 478.857 116.392 479.584 120.074 477.678C123.755 475.772 125.126 470.732 124.575 469.151C123.568 466.26 118.581 466.152 115.745 467.527Z" fill="white" fill-opacity="0.1"/>
<path d="M114.272 485.351C111.016 486.057 108.546 488.216 108.836 490.721C109.123 493.227 112.025 494.885 115.316 494.426C118.607 493.965 120.929 490.785 120.752 489.055C120.497 486.544 116.407 484.888 114.272 485.351Z" fill="white" fill-opacity="0.1"/>
<path d="M14.6233 504.252C12.7516 504.747 10.7965 504.462 9.0788 503.504C6.03649 501.807 2.4675 502.531 0.123783 505.116C-2.21993 507.701 -2.87331 511.634 -1.33153 514.985C-0.461022 516.877 -0.200167 519.031 -0.647347 521.095C-1.12633 523.301 -1.76679 525.556 0.542642 528.433C3.39416 531.983 8.51784 531.782 11.5592 528.428C12.4153 527.483 13.0304 526.373 13.4035 525.191C13.808 523.911 14.4574 522.76 15.2981 521.823C16.1477 520.896 17.1911 520.18 18.3523 519.733C19.424 519.321 20.4312 518.642 21.2883 517.697C24.3291 514.344 24.507 508.697 21.2833 505.557C18.6718 503.014 16.6257 503.723 14.6233 504.252Z" fill="white" fill-opacity="0.1"/>
<path d="M-4.60935 487.584C-6.90189 488.813 -6.60029 493.787 -5.2508 496.503C-3.47947 500.069 -0.111718 501.727 2.09288 500.318C4.29846 498.909 4.58565 494.915 2.73433 491.399C0.884002 487.883 -3.35575 486.913 -4.60935 487.584Z" fill="white" fill-opacity="0.1"/>
<path d="M12.0145 489.839C9.9759 490.291 8.93646 494.493 9.48351 496.582C10.3177 499.768 12.2814 502.058 14.313 501.575C16.3447 501.091 17.4781 498.073 16.8431 494.832C16.2091 491.591 13.4187 489.529 12.0145 489.839Z" fill="white" fill-opacity="0.1"/>
<path d="M-6.27287 367.58C-4.52887 368.388 -2.59656 368.787 -0.580276 368.672C6.57608 368.262 12.5131 361.498 11.7042 353.652C11.0489 347.296 7.80036 345.656 4.78886 343.85C1.97163 342.16 -0.156948 339.404 -1.31117 336.107C-3.35577 330.268 -8.5023 326.776 -14.019 327.091C-19.5352 327.407 -24.326 331.468 -25.8111 337.508C-26.6493 340.919 -28.5086 343.904 -31.1509 345.905C-33.9771 348.046 -37.0532 350.047 -37.1089 356.445C-37.1759 364.341 -30.6347 370.391 -23.4783 369.982C-21.4616 369.866 -19.5774 369.25 -17.9184 368.247C-16.1222 367.161 -14.1547 366.536 -12.1667 366.411C-10.1777 366.309 -8.16096 366.705 -6.27287 367.58Z" fill="white" fill-opacity="0.1"/>
<path d="M-6.73 323.581C-2.57571 324.549 1.82255 319.963 3.09403 313.339C4.36502 306.714 0.104387 300.301 -2.12654 299.591C-6.20581 298.292 -10.8684 304.815 -11.9506 309.834C-13.3711 316.421 -10.8843 322.613 -6.73 323.581Z" fill="white" fill-opacity="0.1"/>
<path d="M7.11476 340.155C10.1178 342.056 14.5752 339.715 17.0715 334.926C19.5677 330.138 18.2053 324.156 16.1537 322.814C13.1755 320.866 7.63597 324.785 6.19606 328.043C4.00239 333.008 4.1117 338.255 7.11476 340.155Z" fill="white" fill-opacity="0.1"/>
</svg>
