<svg width="163" height="158" viewBox="0 0 163 158" fill="none" xmlns="http://www.w3.org/2000/svg">
<path d="M153.201 34.2773C144.08 21.3982 126.438 14.7771 108.28 8.73885C90.0949 2.91358 71.3656 -2.11592 52.2358 1.03279C32.917 3.94039 12.9534 15.2111 4.86627 31.7049C-3.0319 48.4398 1.16294 70.426 7.28409 91.146C13.4329 111.653 21.2914 130.866 35.6429 142.475C50.211 154.111 71.0279 158.329 91.4252 157.294C112.039 156.287 132.206 150.241 144.454 137.319C156.487 124.369 160.385 104.516 162.006 85.2342C163.41 65.9239 162.566 46.9716 153.201 34.2773Z" fill="url(#paint0_linear_3030_64)"/>
<defs>
<linearGradient id="paint0_linear_3030_64" x1="-12.0001" y1="145.711" x2="162.604" y2="2.31052" gradientUnits="userSpaceOnUse">
<stop stop-color="#F87537"/>
<stop offset="1" stop-color="#FBA81F"/>
</linearGradient>
</defs>
</svg>
