<svg width="543" height="512" viewBox="0 0 543 512" fill="none" xmlns="http://www.w3.org/2000/svg">
<path d="M81.3904 53.4969C40.759 90.4043 25.7103 153.674 12.9189 218.45C0.880005 283.227 -8.14917 349.509 11.4141 413.532C30.2249 478.308 78.3806 541.578 139.328 561.915C201.027 581.498 275.518 557.396 344.742 527.267C413.213 497.139 476.418 461.738 510.277 407.507C544.136 352.522 549.404 279.46 536.612 210.165C523.821 140.116 493.723 73.8336 443.31 37.6795C392.897 2.2785 322.169 -2.24079 254.45 0.772061C186.731 4.53812 121.269 15.8363 81.3904 53.4969Z" fill="url(#paint0_linear_1_3633)"/>
<defs>
<linearGradient id="paint0_linear_1_3633" x1="543" y1="569" x2="-25.3782" y2="26.5934" gradientUnits="userSpaceOnUse">
<stop stop-color="#F87537"/>
<stop offset="1" stop-color="#FBA81F"/>
</linearGradient>
</defs>
</svg>
