<svg width="71" height="75" viewBox="0 0 71 75" fill="none" xmlns="http://www.w3.org/2000/svg">
<path d="M60.3578 7.05144C65.6706 11.9162 67.6382 20.2558 69.3108 28.794C70.8849 37.3321 72.0655 46.0689 69.5075 54.5078C67.0479 63.0459 60.7513 71.3855 52.7822 74.0661C44.7147 76.6474 34.9746 73.4704 25.9233 69.4992C16.9703 65.5279 8.70599 60.8617 4.2787 53.7135C-0.148603 46.466 -0.837294 36.8357 0.835241 27.7019C2.50778 18.4688 6.44315 9.73203 13.0349 4.96654C19.6267 0.300329 28.8748 -0.295359 37.7294 0.101765C46.584 0.598171 55.1434 2.08739 60.3578 7.05144Z" fill="url(#paint0_linear_1_3634)"/>
<defs>
<linearGradient id="paint0_linear_1_3634" x1="0" y1="75" x2="74.8875" y2="4.10651" gradientUnits="userSpaceOnUse">
<stop stop-color="#F87537"/>
<stop offset="1" stop-color="#FBA81F"/>
</linearGradient>
</defs>
</svg>
